<svg id="Layer_1" data-name="Layer 1" xmlns="http://www.w3.org/2000/svg" viewBox="0 0 180.82 794.58">
  <defs>
    <style>
      .cls-1 {
        fill: #fff;
      }
    </style>
  </defs>
  <title>Compufest-logo</title>
  <g>
    <path class="cls-1" d="M345.37,459.69V488c0,.51,0,1,0,1.53a1.43,1.43,0,0,1-1.52,1.52c-.34,0-.69,0-1,0q-22.64,0-45.27,0a19.36,19.36,0,0,1-2.37-.35,24.08,24.08,0,0,0-2.54-.29,14.39,14.39,0,0,1-4.19-1l-2.64-.95a26.7,26.7,0,0,1-7.21-4.2,28.34,28.34,0,0,1-5.47-5.47,31,31,0,0,1-4.14-7.09,43.29,43.29,0,0,1-2.34-9.08c-.52-3.17.09-6.21.5-9.27a22,22,0,0,1,1.81-5.26c.59-1.45,1.34-2.83,2-4.23a26.36,26.36,0,0,1,5.09-6.48,31.21,31.21,0,0,1,6.42-5,37.37,37.37,0,0,1,6.66-2.79c2-.71,4-.53,6-1.13a5.11,5.11,0,0,1,1.52-.08h46.17c.3,0,.6,0,.9,0,1.23.06,1.59.4,1.62,1.62s0,2.65,0,4Z" transform="translate(-205.18 -22.75)"/>
    <path class="cls-1" d="M325.39,615.69h-9.23v27.43c0,2.2,0,2.24-2.2,2.24H298.87c-1.1-.05-1.24-.18-1.32-1.27,0-.56,0-1.11,0-1.67V615.88a46.85,46.85,0,0,0-9.39-.12c0,.42-.05.88-.05,1.33v31.34c0,.55,0,1.11,0,1.66a1.13,1.13,0,0,1-1.11,1.18,6.9,6.9,0,0,1-1,.05H269.54c-1-.08-1.24-.29-1.3-1.34,0-.34,0-.68,0-1V597.53c0-2.61,0-2.61,2.63-2.61h71.5a15.23,15.23,0,0,1,1.79.05c.8.09,1.11.44,1.18,1.25a13,13,0,0,1,0,1.4v51.17c0,2.44-.09,2.53-2.51,2.53H327.64c-2.12,0-2.24-.14-2.25-2.26V615.69Z" transform="translate(-205.18 -22.75)"/>
    <path class="cls-1" d="M318.29,726.82v-7.29c0-1.44,0-1.48,1.38-1.83a19.32,19.32,0,0,1,2.37-.43,7.82,7.82,0,0,0,6.53-4.85c1.6-3.54,1.54-7.24,1.18-11a11.54,11.54,0,0,0-1.93-5.46,5.48,5.48,0,0,0-6.07-2.14,5.75,5.75,0,0,0-2.4,1.78,11.43,11.43,0,0,0-2,4.12c-.61,2.07-1.29,4.11-1.89,6.18-.27.94-.4,1.91-.6,2.86-.54,2.62-1.07,5.23-1.65,7.84-.21.95-.53,1.88-.82,2.81-.5,1.61-.92,3.26-1.53,4.83A22.2,22.2,0,0,1,306,731.6c-3.1,3.22-6.94,4.6-11.26,5a24.64,24.64,0,0,1-10-.85,21.69,21.69,0,0,1-6.34-3.22,24.8,24.8,0,0,1-4.53-4.27,27,27,0,0,1-4.8-8.19c-.57-1.64-1.14-3.27-1.7-4.91a3.89,3.89,0,0,1-.21-.74,47.88,47.88,0,0,1-.92-7c0-2.08,0-4.18,0-6.26a34.43,34.43,0,0,1,1.3-8.43c.28-.94.44-1.91.78-2.82a29.34,29.34,0,0,1,3.4-7.07,30.24,30.24,0,0,1,3.73-4.49,22.83,22.83,0,0,1,5.07-3.59,21.72,21.72,0,0,1,5.7-2.15,32.58,32.58,0,0,1,8.95-1.16c1.5.09,1.8.31,1.8,1.82q0,7.42,0,14.84c0,1.71-.31,2.08-2,2a10.22,10.22,0,0,0-7.2,2.74,9.43,9.43,0,0,0-2.08,2.7,13,13,0,0,0-1.64,6,60.74,60.74,0,0,0,.15,7c.35,2.6,1.1,5.2,3.46,6.84s6.42,1.74,8.12-2.33A33.3,33.3,0,0,0,298,705c.28-1.93.63-3.87,1.07-5.77.59-2.47,1.2-4.94,2-7.36a66.61,66.61,0,0,1,2.52-6.5,24.14,24.14,0,0,1,4.95-7,19.21,19.21,0,0,1,3.78-3,14.06,14.06,0,0,1,5.34-1.92A34.37,34.37,0,0,1,323,673a22.22,22.22,0,0,1,5.82.66,22.7,22.7,0,0,1,7,3.27,27,27,0,0,1,7.9,9.48,33,33,0,0,1,1.7,4.37c.38,1,.69,2.09,1,3.13a3.58,3.58,0,0,1,.17.62c.27,2.15.66,4.29.76,6.45a63.21,63.21,0,0,1-.06,7.54,23.2,23.2,0,0,1-1.13,6.11c-.27.76-.42,1.56-.65,2.33a24.8,24.8,0,0,1-4.23,8.2,29.81,29.81,0,0,1-9.23,7.87,32.7,32.7,0,0,1-5.51,2.25c-2.31.77-4.72.61-7.1.57-.88,0-1.16-.43-1.16-1.48C318.28,731.85,318.29,729.34,318.29,726.82Z" transform="translate(-205.18 -22.75)"/>
    <path class="cls-1" d="M306.79,182.82c3,0,6,0,9.08,0a30.42,30.42,0,0,1,9,1.43A31.59,31.59,0,0,1,341.8,197a33.1,33.1,0,0,1,2.84,5.1c.59,1.31.94,2.72,1.48,4.06a21.24,21.24,0,0,1,1.2,6.09,33.55,33.55,0,0,1,0,5.49,30.14,30.14,0,0,1-1.55,7.32,34.23,34.23,0,0,1-2.79,6.13,27.23,27.23,0,0,1-5,6.25,45.76,45.76,0,0,1-3.7,3.27,30.3,30.3,0,0,1-3.82,2.51,24.31,24.31,0,0,1-6.59,2.66,35.8,35.8,0,0,1-7.91,1.29c-6.61-.06-13.22,0-19.83-.06a11.74,11.74,0,0,1-2.27-.28c-1.58-.31-3.18-.6-4.73-1a27.73,27.73,0,0,1-7.42-3.22,34.08,34.08,0,0,1-6.35-5,32.17,32.17,0,0,1-5-6.41,46.29,46.29,0,0,1-2.66-5.92,23.17,23.17,0,0,1-1.56-9.25c0-1.11,0-2.22,0-3.33a23.79,23.79,0,0,1,1.72-8.59,32.47,32.47,0,0,1,9.85-14,35.62,35.62,0,0,1,7.21-4.45,29.09,29.09,0,0,1,12-2.81C300.3,182.79,303.54,182.82,306.79,182.82Zm0,43.64h0c3,0,6.06-.07,9.08,0a12.83,12.83,0,0,0,5-1,11.26,11.26,0,0,0,5.49-4.73,9.1,9.1,0,0,0,1.26-3.29,26.58,26.58,0,0,0,.1-4.19A8.87,8.87,0,0,0,324.7,207a11.48,11.48,0,0,0-8.6-3.49c-6.06.07-12.11.08-18.16,0a12.48,12.48,0,0,0-7.24,2,10.46,10.46,0,0,0-3.59,3.68,13,13,0,0,0-1.27,3.43,10.8,10.8,0,0,0,1.76,8.82,11.86,11.86,0,0,0,3.38,3.05,10.91,10.91,0,0,0,5.94,2C300.2,226.54,303.48,226.46,306.76,226.46Z" transform="translate(-205.18 -22.75)"/>
    <path class="cls-1" d="M291.36,372.87H269.67c-1.31,0-1.43-.11-1.43-1.36q0-8.82,0-17.65c0-1.34.22-1.52,1.59-1.56h72.53a17.89,17.89,0,0,1,1.79,0c.84.09,1.1.38,1.18,1.22,0,.43,0,.86,0,1.28,0,10.15,0,20.3,0,30.44a36.26,36.26,0,0,1-1.22,8.3,22.67,22.67,0,0,1-2.87,6.76,27.74,27.74,0,0,1-7.92,8.44,24.14,24.14,0,0,1-8,3.78,24.49,24.49,0,0,1-8.72.95,29.7,29.7,0,0,1-10-2.73A27.56,27.56,0,0,1,296.37,402a26.52,26.52,0,0,1-3.74-7.78,34.7,34.7,0,0,1-1.28-10.33c0-3.2,0-6.4,0-9.59Z" transform="translate(-205.18 -22.75)"/>
    <path class="cls-1" d="M291.14,103.59c-1.83.63-3.6,1.21-5.35,1.83-2.32.81-4.63,1.64-6.94,2.46l-.24.08c-2,.74-2.5.45-2.93-1.69-.35-1.7-.93-3.37-1.14-5.08a44.45,44.45,0,0,1-.36-6.62,36.1,36.1,0,0,1,.69-5.56,53.76,53.76,0,0,1,1.3-5.44A31.89,31.89,0,0,1,279,77.19a40.61,40.61,0,0,1,4.94-6.88,34.09,34.09,0,0,1,6.05-5.4,35.81,35.81,0,0,1,9.38-5c2.06-.69,4.18-1.1,6.28-1.6a34.77,34.77,0,0,1,6.72-.65,40,40,0,0,1,6.33.59,30.72,30.72,0,0,1,3.26.63,34.08,34.08,0,0,1,8.39,3.3,28.49,28.49,0,0,1,6.9,5c1.18,1.2,2.51,2.26,3.62,3.52A38.53,38.53,0,0,1,344,74.76,41.14,41.14,0,0,1,348.24,83a35.11,35.11,0,0,1,1.87,16.22,33.18,33.18,0,0,1-2.36,9.36c-.18.44-.28.9-.42,1.35-.49,1.56-1.21,1.89-2.68,1.22-.92-.42-1.85-.84-2.77-1.29q-4.15-2-8.31-4.12c-1.08-.54-1.22-.82-.8-1.9a23.11,23.11,0,0,0,1.65-8.07,21.48,21.48,0,0,0-1.43-8.6,21.16,21.16,0,0,0-3.15-5.45,24.15,24.15,0,0,0-7-5.75,26.75,26.75,0,0,0-5.68-2.13,17.84,17.84,0,0,0-6.23-.36,23.6,23.6,0,0,0-8.52,2.31,20.59,20.59,0,0,0-7.12,5.4A19,19,0,0,0,291,89.06a26,26,0,0,0-1,4.85,20.45,20.45,0,0,0,.52,6.84c.18.61.44,1.19.59,1.8A4.47,4.47,0,0,1,291.14,103.59Z" transform="translate(-205.18 -22.75)"/>
    <path class="cls-1" d="M325.39,783.76V757.2c0-2.4.13-2.53,2.53-2.53H343c2.18,0,2.35.18,2.35,2.3q0,29,0,57.94c0,2.16-.25,2.41-2.45,2.41H327.45c-1.77,0-2.05-.32-2.05-2.13q0-12.74,0-25.45v-1.52c-.57,0-1-.08-1.47-.08H271.36c-.64,0-1.28,0-1.92,0-.8-.05-1.08-.27-1.16-1.07a22,22,0,0,1,0-2.3.87.87,0,0,1,.95-1l1.28,0h54.91Z" transform="translate(-205.18 -22.75)"/>
    <path class="cls-1" d="M298.58,296.82c1.05.65,1.79,1.13,2.56,1.57,1.48.85,3,1.67,4.44,2.5l3.79,2.1c2,1.14,4.08,2.27,6.1,3.42,2.29,1.29,4.56,2.62,6.85,3.91,2.77,1.57,5.56,3.1,8.33,4.67,3,1.69,6,3.41,8.93,5.12,1.69,1,3.38,1.92,5.08,2.85a1.26,1.26,0,0,1,.72,1.24c0,.81,0,1.63,0,2.43s-.27,1.05-1.08,1.15a8.84,8.84,0,0,1-1.15,0h-72.4c-2.36,0-2.45-.09-2.45-2.45V267.68c0-2.34.15-2.48,2.45-2.48H343.9c1.15.07,1.43.33,1.48,1.46,0,.81,0,1.62,0,2.43a1.47,1.47,0,0,1-.85,1.44c-2.24,1.2-4.47,2.42-6.7,3.64-.67.37-1.3.81-1.95,1.2-2.08,1.23-4.16,2.46-6.25,3.67s-4.38,2.45-6.56,3.68l-8.52,4.82-4.08,2.31c-1.43.81-2.86,1.63-4.3,2.43-2.14,1.2-4.29,2.37-6.42,3.58A9.8,9.8,0,0,0,298.58,296.82ZM334.94,323v-.36c-.82-.51-1.62-1.06-2.46-1.53-2.37-1.32-4.76-2.61-7.14-3.92-.86-.46-1.72-.92-2.57-1.41-2-1.17-4-2.37-6-3.53-3-1.71-6-3.39-9-5.09l-6.93-4c-2.39-1.38-4.79-2.74-7.16-4.15-1-.6-1.16-3.79-.24-4.53a3.17,3.17,0,0,1,.45-.23c.88-.51,1.76-1,2.65-1.52,2.76-1.56,5.54-3.09,8.3-4.66,3.42-1.94,6.82-3.92,10.24-5.86l10.08-5.73q4-2.26,7.94-4.55c.83-.48,1.63-1,2.45-1.49-.24-.72-.75-.57-1.2-.55-1,0-2,.15-3.06.16H274.25c-.45,0-.9.06-1.3.09-.35,1.31-.33,51.91,0,53h1.45l59.35,0A7.46,7.46,0,0,0,334.94,323Z" transform="translate(-205.18 -22.75)"/>
    <path class="cls-1" d="M316.72,519.06v39.82c0,2.51,0,2.51-2.45,2.51h-16.5a.78.78,0,0,1-.84-.78,10.86,10.86,0,0,1-.05-1.4q0-19.19,0-38.37c0-1.85,0-1.85-1.81-1.85H270.25c-2,0-2,0-2-2,0-2.58-.06-2.43,2.46-2.43h72.14c2.53,0,2.54,0,2.54,2.57V569.2c0,.51,0,1,0,1.54-.07.79-.31,1.1-1.08,1.17a21.69,21.69,0,0,1-2.55,0,1,1,0,0,1-1-1,13.22,13.22,0,0,1-.06-1.54v-48c0-.56,0-1.11-.06-1.66a.76.76,0,0,0-.84-.77H318.15C317.74,519,317.32,519,316.72,519.06Z" transform="translate(-205.18 -22.75)"/>
    <path class="cls-1" d="M326.69,53.13a4.64,4.64,0,0,1-.79.16L319.77,53l-2.55-.15c-3.28-.15-6.57-.17-9.83-.46-7-.63-14-.88-21.05-1.22-3.57-.18-7.13-.56-10.7-.77s-6.89-.31-10.34-.49c-2.93-.15-5.86-.34-8.82-.52a1.39,1.39,0,0,1,.54-1.47,88.81,88.81,0,0,1,9.12-8.65,54.62,54.62,0,0,1,6.07-4.37c1.76-1,3.37-2.27,5.14-3.24a51.07,51.07,0,0,1,8.53-3.93c2.41-.79,4.8-1.66,7.24-2.38,1.91-.56,3.87-.92,5.8-1.41a2.52,2.52,0,0,1,2.64.85c1.67,1.9,3.31,3.84,5,5.74,2.64,3,5.31,5.93,7.95,8.91,1.69,1.89,3.32,3.83,5,5.72s3.3,3.51,4.92,5.3C325.17,51.23,325.84,52.1,326.69,53.13Z" transform="translate(-205.18 -22.75)"/>
    <path class="cls-1" d="M269.89,81.81c0,.64,0,1,0,1.47-.31,5.61-.59,11.23-.94,16.85-.39,6.33-.85,12.66-1.26,19q-.78,11.87-1.54,23.73c-.16,2.42-.35,4.84-.54,7.26,0,.41-.14.82-.25,1.45a8.64,8.64,0,0,1-1.37-.87c-2.2-2.17-4.4-4.33-6.53-6.56a62,62,0,0,1-5.73-7.28,75.78,75.78,0,0,1-5.52-9.52c-1.43-2.79-2.35-5.79-3.64-8.64a13.4,13.4,0,0,1-.66-2.47c-.55-2.31-1.12-4.62-1.64-6.94a2.44,2.44,0,0,1,.95-2.67c4-3.35,7.88-6.79,11.78-10.23,1.27-1.11,2.45-2.32,3.7-3.46,1.09-1,2.22-2,3.34-2.92l6.8-5.93c.63-.56,1.25-1.14,1.9-1.67A7.9,7.9,0,0,1,269.89,81.81Z" transform="translate(-205.18 -22.75)"/>
    <path class="cls-1" d="M352.5,75.3a6,6,0,0,1-1-.74q-6.34-7.11-12.65-14.24c-3.7-4.18-7.35-8.39-11.06-12.56-3.09-3.48-6.24-6.91-9.34-10.37-2.62-2.93-5.2-5.9-7.8-8.84-1.32-1.48-2.66-2.95-4-4.42-.29-.31-.65-.57-.36-1.19a8.15,8.15,0,0,1,1.17-.14c3.92,0,7.85-.17,11.75.12a43.16,43.16,0,0,1,9.41,1.58c1.29.4,2.69.46,4,.86,2.22.68,4.39,1.5,6.57,2.27.56.19,1.14.36,1.68.6,2.36,1.05,4.76,2,7,3.21s4.22,2.5,6.28,3.82a2.3,2.3,0,0,1,1.1,2.18c0,.47,0,.94-.05,1.4L354.4,51.2c-.38,5.48-.77,11-1.14,16.44-.17,2.5-.3,5-.45,7.51Z" transform="translate(-205.18 -22.75)"/>
    <path class="cls-1" d="M292.38,55.89c-1,1-1.79,1.72-2.61,2.44l-10,8.84c-2.69,2.38-5.36,4.77-8.06,7.13-1.47,1.28-3,2.48-4.47,3.75-2.59,2.25-5.15,4.52-7.74,6.77-1.33,1.17-2.7,2.3-4,3.47-1.94,1.72-3.84,3.47-5.77,5.19l-7.24,6.37c-.7.62-1.37,1.26-2.08,1.87-.2.17-.58.42-.71.35a1.33,1.33,0,0,1-.52-.76,7.22,7.22,0,0,1-.13-1.4,76.36,76.36,0,0,1,.57-13.52,48.26,48.26,0,0,1,1.68-8.23c.36-1,.49-2.16.84-3.21a82.79,82.79,0,0,1,3.72-9.6,103.27,103.27,0,0,1,5-9.28,3.62,3.62,0,0,1,.2-.33c2-2.7,1.89-2.42,4.49-2.26,4.71.27,9.42.63,14.14.91,3.44.2,6.9.28,10.34.48,3.78.23,7.56.54,11.33.82C291.56,55.71,291.81,55.78,292.38,55.89Z" transform="translate(-205.18 -22.75)"/>
    <path class="cls-1" d="M385.36,88.86a20.11,20.11,0,0,1,.62,6.23c-.12,2.85-.32,5.69-.58,8.53A59.37,59.37,0,0,1,383.14,115a79.87,79.87,0,0,1-3.09,8.89,53.43,53.43,0,0,1-4.95,9.29c-.84,1.22-1.67,2.45-2.46,3.7a1.87,1.87,0,0,1-1.87.84l-9.44-.55c-2.38-.14-4.75-.31-7.14-.44-3.87-.21-7.74-.39-11.61-.59l-8.55-.48c-.5,0-1,0-1.37-.64C350.18,119.69,367.59,104.25,385.36,88.86Z" transform="translate(-205.18 -22.75)"/>
    <path class="cls-1" d="M359.56,39.53c.51.39.85.62,1.16.89a81.77,81.77,0,0,1,8.73,9,65.86,65.86,0,0,1,5.2,7,71.51,71.51,0,0,1,4.93,9.17A86.55,86.55,0,0,1,383,75c.49,1.62.8,3.29,1.19,5a3.6,3.6,0,0,0,.15.74c.95,1.88.17,3.23-1.24,4.45-2.7,2.33-5.36,4.68-8.05,7-2.42,2.11-4.86,4.2-7.28,6.31-1.46,1.28-2.89,2.6-4.36,3.88s-2.83,2.39-4.22,3.6c-1,.86-1.93,1.77-2.9,2.64-.3.27-.61.63-1.11.33a1,1,0,0,1-.33-1.15c.68-2.92.49-5.93.73-8.89.45-5.69.61-11.4,1-17.1.32-5.14.78-10.27,1.12-15.41.37-5.6.67-11.22,1-16.83.17-2.89.38-5.78.58-8.66A12.72,12.72,0,0,1,359.56,39.53Z" transform="translate(-205.18 -22.75)"/>
    <path class="cls-1" d="M298.52,137.77c.66,0,1.2,0,1.73,0,3.57.26,7.13.55,10.7.79,2.42.16,4.85.24,7.28.36,5.1.27,10.21.52,15.31.82,4.21.25,8.41.58,12.62.83,3.44.2,6.89.32,10.34.52s7,.45,10.45.69a9.45,9.45,0,0,1,1.19.25,2.66,2.66,0,0,1-.79,1.57c-1.61,1.62-3.21,3.26-4.85,4.86-1.3,1.26-2.6,2.52-4,3.68a43.33,43.33,0,0,1-4.18,3.09c-2.13,1.38-4.28,2.74-6.5,3.94a50.85,50.85,0,0,1-7.36,3.45c-2.56.89-5.06,2-7.65,2.75-2.4.73-4.87,1.2-7.32,1.76a2,2,0,0,1-2.15-.79c-1.4-1.64-2.79-3.3-4.24-4.9-2-2.16-4-4.25-5.93-6.41-1.47-1.63-2.85-3.34-4.3-5s-2.87-3.21-4.3-4.83l-4.26-4.88c-.25-.29-.51-.56-.78-.83A3,3,0,0,1,298.52,137.77Z" transform="translate(-205.18 -22.75)"/>
    <path class="cls-1" d="M318.14,168.08a2.53,2.53,0,0,1-.57.12c-4.22,0-8.44.07-12.65-.12a40.67,40.67,0,0,1-6.54-1.05,75.24,75.24,0,0,1-8.16-2,50.71,50.71,0,0,1-6.46-2.3c-2.17-1-4.44-1.9-6.53-3.09a63,63,0,0,1-6.52-3.89,2.29,2.29,0,0,1-1-2.2q.13-2.81.3-5.61.19-3.33.4-6.64.57-8.81,1.15-17.6c.16-2.29.35-4.58.55-6.87a7.11,7.11,0,0,1,.26-1.06c.71.7,1.32,1.23,1.86,1.84q2.67,3,5.29,6c2.64,3,5.23,6.08,7.9,9.06,3.05,3.41,6.2,6.72,9.27,10.11,1.39,1.53,2.66,3.18,4,4.74,1.89,2.16,3.82,4.29,5.72,6.45,1.51,1.71,3,3.45,4.5,5.16s3.07,3.36,4.61,5c.71.78,1.46,1.52,2.16,2.31C318.25,167.09,318.23,167.13,318.14,168.08Z" transform="translate(-205.18 -22.75)"/>
    <path class="cls-1" d="M238.49,732.52c-4.71-4.37-9.14-9-13.85-13.59l-6.42,4.51c-2.11,1.49-4.16,3.07-6.33,4.48s-4,3.2-6.57,4.35c-.06-.55-.13-.92-.13-1.28q0-12.54,0-25.07c0-1.46.17-1.62,1.61-1.62h30.45c1.46,0,1.65.17,1.65,1.59q0,12.68,0,25.33c0,.37-.06.75-.09,1.12Zm-16.42-16a14.51,14.51,0,0,0-.94-1.2c-1.84-1.87-3.75-3.68-5.53-5.6-1.16-1.25-2.36-2.16-4.18-1.81a11.12,11.12,0,0,1-1.53,0c-1.19,0-1.36.15-1.36,1.31q0,7.8,0,15.6a5.29,5.29,0,0,0,.21.92,3.3,3.3,0,0,0,.88-.31C213.72,722.43,218,719.66,222.07,716.48Z" transform="translate(-205.18 -22.75)"/>
    <path class="cls-1" d="M228.39,675.82v-1.59c0-1.64.07-1.67,1.77-1.58,4.79.26,9.38,4.8,9.25,9.81a12.94,12.94,0,0,1-1,5.61,9.56,9.56,0,0,1-11.95,4.86,15.2,15.2,0,0,1-4.67-3.26l-11.9-10.92c-.3-.28-.64-.52-1.18-1a13.92,13.92,0,0,0-.22,1.66c0,4.31,0,8.62,0,12.92,0,.55-.07,1.09-.12,1.8-.88,0-1.67,0-2.46,0-.47,0-.67-.33-.73-.75a8.75,8.75,0,0,1,0-.89V674.12c0-.26,0-.51,0-.77a.74.74,0,0,1,.78-.82,3.6,3.6,0,0,1,3.08.79c1.17,1.16,2.46,2.2,3.68,3.31,1.85,1.69,3.68,3.38,5.51,5.09s3.88,3.67,5.87,5.45c.85.76,1.82,1.38,2.73,2.07,2.53,1.93,6.37.37,7.85-1.58a7.24,7.24,0,0,0-3.45-11.35A22.48,22.48,0,0,0,228.39,675.82Z" transform="translate(-205.18 -22.75)"/>
    <path class="cls-1" d="M208.64,746c0,.58-.11,1-.11,1.48q0,6.33,0,12.66c0,.38,0,.77,0,1.15,0,.2-.13.55-.22.56a11.55,11.55,0,0,1-2.62.1c-.61-.09-.47-.82-.47-1.32,0-4.73,0-9.46,0-14.19,0-1.54,0-3.07,0-4.61,0-1.18.16-1.28,1.35-1.33a2.89,2.89,0,0,1,2.32.74c1.78,1.7,3.64,3.32,5.48,5,1.67,1.5,3.37,3,5,4.48s3.4,3.2,5.14,4.75a8.77,8.77,0,0,0,3.87,2.34,6.49,6.49,0,0,0,7.82-5.89,6.91,6.91,0,0,0-6.07-7.64c-1.75-.18-1.74-.24-1.74-2s.24-1.86,1.88-1.59a10.89,10.89,0,0,1,8.11,5.56,5.45,5.45,0,0,1,.51,1.16,11.87,11.87,0,0,1-.2,8,9.57,9.57,0,0,1-6.58,5.71,8.49,8.49,0,0,1-7.9-1.66c-2-1.54-3.8-3.24-5.68-4.9q-3.28-2.91-6.54-5.86c-.85-.77-1.68-1.56-2.53-2.32A3.43,3.43,0,0,0,208.64,746Z" transform="translate(-205.18 -22.75)"/>
    <path class="cls-1" d="M208.69,780a11.59,11.59,0,0,0-.16,1.43q0,6.39,0,12.78c0,1.9,0,1.9-1.91,1.87-1.3,0-1.42-.12-1.42-1.37q0-9.4,0-18.8c0-1.28.09-1.28,1.39-1.39a3.37,3.37,0,0,1,2.66,1q2.52,2.25,5,4.52t4.79,4.38c1.72,1.58,3.39,3.2,5.14,4.75a9.65,9.65,0,0,0,4,2.6,6.45,6.45,0,0,0,7.95-5.69,7,7,0,0,0-6.38-8l-1.38-.15v-2.49c0-.54.31-.76.82-.75a10.49,10.49,0,0,1,5.25,1.39,9.89,9.89,0,0,1,3.7,3.76,9.29,9.29,0,0,1,1,2.73,12.39,12.39,0,0,1-.37,6.56,9.91,9.91,0,0,1-9.23,6.45,8.61,8.61,0,0,1-5.26-2c-3.66-2.79-6.85-6.1-10.27-9.15l-5-4.46Z" transform="translate(-205.18 -22.75)"/>
  </g>
</svg>
